<svg width="507" height="218" viewBox="0 0 507 218" fill="none" xmlns="http://www.w3.org/2000/svg">
<path d="M0.0523376 1.30769C36.2534 1.30769 65.5887 49.4623 65.5887 108.888C65.5887 168.314 36.2534 216.469 0.0523376 216.469" stroke="#EDF738" stroke-opacity="0.4" stroke-width="0.918685"/>
<path d="M254.197 141.335C228.357 149.789 195.538 154.977 161.396 154.977C74.0149 154.977 3.11072 122.352 3.11072 82.0872C3.11072 41.8226 74.0149 9.19772 161.396 9.19772C199.72 9.19772 226.798 12.6122 254.197 23.0697" stroke="#EDF738" stroke-opacity="0.4" stroke-width="0.918685"/>
<path d="M254.197 195.044C226.797 205.563 200.031 208.514 161.583 208.514C74.2006 208.514 3.29645 175.827 3.29645 135.625C3.29645 95.4223 74.2006 62.6725 161.583 62.6725C195.724 62.6725 228.243 67.4943 254.083 75.9479" stroke="#EDF738" stroke-opacity="0.4" stroke-width="0.918685"/>
<path d="M506.867 216.469C470.666 216.469 441.331 168.314 441.331 108.888C441.331 49.4623 470.666 1.30769 506.867 1.30769" stroke="#EDF738" stroke-opacity="0.4" stroke-width="0.918685"/>
<path d="M253.896 76.2636C279.737 67.8099 311.381 62.8003 345.523 62.8003C432.905 62.8003 503.809 95.425 503.809 135.69C503.809 175.954 432.967 208.579 345.523 208.579C307.199 208.579 281.598 205.501 254.197 195.044" stroke="#EDF738" stroke-opacity="0.4" stroke-width="0.918685"/>
<path d="M254.198 23.0698C281.598 12.5497 307.013 9.00977 345.46 9.00977C432.842 9.00977 503.746 41.6347 503.746 81.8992C503.746 122.163 432.904 154.789 345.46 154.789C311.319 154.789 280.038 149.789 254.198 141.335" stroke="#EDF738" stroke-opacity="0.4" stroke-width="0.918685"/>
<path d="M256.58 217.283C336.416 217.283 401.135 168.754 401.135 108.888C401.135 49.0235 336.416 0.49353 256.58 0.49353C176.746 0.49353 112.026 49.0235 112.026 108.888C112.026 168.754 176.746 217.283 256.58 217.283Z" stroke="#EDF738" stroke-opacity="0.4" stroke-width="0.918685"/>
<path d="M254.208 0.49353V217.283" stroke="#EDF738" stroke-opacity="0.4" stroke-width="0.918685"/>
</svg>
